<?xml version="1.0" encoding="UTF-8" standalone="no"?>
<svg
   viewBox="0 0 220 190"
   version="1.1"
   id="svg2"
   sodipodi:docname="hive-blockchain-hive-logo.svg"
   inkscape:version="1.3 (0e150ed6c4, 2023-07-21)"
   xmlns:inkscape="http://www.inkscape.org/namespaces/inkscape"
   xmlns:sodipodi="http://sodipodi.sourceforge.net/DTD/sodipodi-0.dtd"
   xmlns="http://www.w3.org/2000/svg"
   xmlns:svg="http://www.w3.org/2000/svg"
   xmlns:rdf="http://www.w3.org/1999/02/22-rdf-syntax-ns#"
   xmlns:cc="http://creativecommons.org/ns#"
   xmlns:dc="http://purl.org/dc/elements/1.1/">
  <sodipodi:namedview
     id="namedview2"
     pagecolor="#ffffff"
     bordercolor="#000000"
     borderopacity="0.25"
     inkscape:showpageshadow="2"
     inkscape:pageopacity="0.0"
     inkscape:pagecheckerboard="0"
     inkscape:deskcolor="#d1d1d1"
     showgrid="false"
     inkscape:zoom="4.0105263"
     inkscape:cx="110.0853"
     inkscape:cy="95"
     inkscape:window-width="1781"
     inkscape:window-height="958"
     inkscape:window-x="0"
     inkscape:window-y="48"
     inkscape:window-maximized="1"
     inkscape:current-layer="svg2" />
  <defs
     id="defs1">
    <style
       id="style1">.cls-1{fill:#e31337;}</style>
  </defs>
  <title
     id="title1">hive-hive-logo</title>
  <g
     id="Layer_2"
     data-name="Layer 2">
    <g
       id="Layer_1-2"
       data-name="Layer 1">
      <path
         class="cls-1"
         d="M157.27,107.26a1,1,0,0,1,.82,1.42l-46.75,80.85a1,1,0,0,1-.82.47H81.94a.94.94,0,0,1-.81-1.42l46.75-80.85a.94.94,0,0,1,.81-.47ZM129.48,84.09a1,1,0,0,1-.82-.47L81.13,1.42A.94.94,0,0,1,81.94,0h28.58a1,1,0,0,1,.82.47l47.53,82.2a.94.94,0,0,1-.81,1.42Z"
         id="path1" />
      <path
         class="cls-1"
         d="M135.13,1.42A.94.94,0,0,1,136,0h28.62a.93.93,0,0,1,.81.47l54.49,94.06a.93.93,0,0,1,0,.94l-54.49,94.06a.93.93,0,0,1-.81.47H136a.94.94,0,0,1-.82-1.42L189.34,95Zm-23.26,93.1a1,1,0,0,1,0,1L57.13,189.53a1,1,0,0,1-1.65,0L.13,95.48a1,1,0,0,1,0-1L54.87.47a1,1,0,0,1,1.65,0Z"
         id="path2" />
    </g>
  </g>
  <metadata
     id="metadata2">
    <rdf:RDF>
      <cc:Work
         rdf:about="">
        <dc:title>hive-hive-logo</dc:title>
      </cc:Work>
    </rdf:RDF>
  </metadata>
</svg>
